<?xml version="1.0" standalone="no"?>
<!DOCTYPE svg PUBLIC "-//W3C//DTD SVG 20010904//EN"
 "http://www.w3.org/TR/2001/REC-SVG-20010904/DTD/svg10.dtd">
<svg version="1.0" xmlns="http://www.w3.org/2000/svg"
 width="512.000000pt" height="512.000000pt" viewBox="0 0 512.000000 512.000000"
 preserveAspectRatio="xMidYMid meet">
<metadata>
Created by potrace 1.14, written by Peter Selinger 2001-2017
</metadata>
<g transform="translate(0.000000,512.000000) scale(0.100000,-0.100000)"
fill="#000000" stroke="none">
<path d="M2350 4605 l0 -455 -240 0 -240 0 0 -240 0 -240 -210 0 -210 0 0 240
0 240 -240 0 -240 0 0 -240 0 -240 240 0 240 0 0 -210 0 -210 -240 0 -240 0 0
-240 0 -240 -455 0 -455 0 0 -210 0 -210 455 0 455 0 0 -240 0 -240 240 0 240
0 0 -245 0 -245 -240 0 -240 0 0 -205 0 -205 240 0 240 0 0 205 0 205 210 0
210 0 0 -205 0 -205 240 0 240 0 0 -455 0 -455 210 0 210 0 0 455 0 455 240 0
240 0 0 205 0 205 210 0 210 0 0 -205 0 -205 240 0 240 0 0 205 0 205 -240 0
-240 0 0 245 0 245 240 0 240 0 0 240 0 240 455 0 455 0 0 210 0 210 -455 0
-455 0 0 240 0 240 -240 0 -240 0 0 210 0 210 240 0 240 0 0 240 0 240 -240 0
-240 0 0 -240 0 -240 -210 0 -210 0 0 240 0 240 -240 0 -240 0 0 455 0 455
-210 0 -210 0 0 -455z m420 -1145 l0 -210 240 0 240 0 0 -240 0 -240 450 0
450 0 0 -210 0 -210 -450 0 -450 0 0 -240 0 -240 -240 0 -240 0 0 -245 0 -245
-210 0 -210 0 0 245 0 245 -240 0 -240 0 0 240 0 240 -450 0 -450 0 0 210 0
210 450 0 450 0 0 240 0 240 240 0 240 0 0 210 0 210 210 0 210 0 0 -210z"/>
</g>
</svg>
